# xmcd
#
# Track frame offsets: 
#        150
#        21010
#        37580
#        58360
#        74535
#        99012
#        114555
#        130755
#        147375
#        168855
#
# Disc length: 2432 seconds
#
# Revision: 2
# Processed by: cddbd v1.5.2PL0 Copyright (c) Steve Scherf et al.
# Submitted via: ExactAudioCopy v0.95a3
#
DISCID=80097e0a
DTITLE=Colin James - Colin James
DYEAR=1988
DGENRE=Blues
TTITLE0=Five Long Years
TTITLE1=Voodoo Thing
TTITLE2=Down in the Bottom
TTITLE3=Chicks'n' Cars (and the Third World War)
TTITLE4=Why'd You Lie
TTITLE5=Hidden Charms
TTITLE6=Bad Girl
TTITLE7=Lone Wolf
TTITLE8=Dream of Satin
TTITLE9=Three Sheets to the Wind
EXTD=
EXTT0=
EXTT1=
EXTT2=
EXTT3=
EXTT4=
EXTT5=
EXTT6=
EXTT7=
EXTT8=
EXTT9=
PLAYORDER=
